<mxfile host="app.diagrams.net" modified="2021-07-13T08:09:33.717Z" agent="5.0 (Macintosh; Intel Mac OS X 10_14_0) AppleWebKit/537.36 (KHTML, like Gecko) Chrome/91.0.4472.114 Safari/537.36" etag="c4W6C_9LJEY9LYBAFQP_" version="14.7.7" type="github">
  <diagram id="R2lEEEUBdFMjLlhIrx00" name="producer">
    <mxGraphModel dx="1170" dy="553" grid="1" gridSize="10" guides="1" tooltips="1" connect="1" arrows="1" fold="1" page="1" pageScale="1" pageWidth="850" pageHeight="1100" math="0" shadow="0" extFonts="Permanent Marker^https://fonts.googleapis.com/css?family=Permanent+Marker">
      <root>
        <mxCell id="0" />
        <mxCell id="1" parent="0" />
        <mxCell id="P7kI_6OZgvpL-uzqJ9Wy-2" value="&lt;font style=&quot;font-size: 14px&quot;&gt;&lt;b&gt;Client&lt;/b&gt;&lt;/font&gt;" style="rounded=0;whiteSpace=wrap;html=1;" vertex="1" parent="1">
          <mxGeometry x="100" y="100" width="80" height="390" as="geometry" />
        </mxCell>
        <mxCell id="P7kI_6OZgvpL-uzqJ9Wy-3" value="&lt;font style=&quot;font-size: 14px&quot;&gt;&lt;b&gt;broker-x&lt;/b&gt;&lt;/font&gt;" style="rounded=0;whiteSpace=wrap;html=1;" vertex="1" parent="1">
          <mxGeometry x="540" y="100" width="70" height="150" as="geometry" />
        </mxCell>
        <mxCell id="P7kI_6OZgvpL-uzqJ9Wy-4" value="初始node放在metadataCache里面的一个nodes的map中。&lt;br&gt;初始化连接（&lt;span style=&quot;color: rgb(255 , 198 , 109) ; background-color: rgb(43 , 43 , 43) ; font-family: &amp;#34;jetbrains mono&amp;#34; , monospace ; font-size: 10.5pt&quot;&gt;leastLoadedNode&lt;/span&gt;&lt;span&gt;），1canSendRequestNode&lt;br&gt;2.isPreparingConnection&lt;br&gt;3.canConnect&amp;nbsp; 按照三个优先级赛选node&lt;br&gt;&lt;br&gt;然后通过node的id去匹配出address（initiateConnect方法中）&lt;br&gt;&lt;br&gt;根据bootstrap.server获取metadata信息然后返回全量node更新到metadataCache node中，这里就获得全量broker节点&lt;br&gt;&lt;/span&gt;&lt;span&gt;&lt;br&gt;send时候带上topic，握手，获取metadata，response message中会带有leaderId&lt;br&gt;Partition的metadata中维护一个leaderId，去匹配每次发送的nodes&lt;br&gt;&lt;br&gt;&lt;/span&gt;" style="text;html=1;strokeColor=none;fillColor=none;align=center;verticalAlign=middle;whiteSpace=wrap;rounded=0;" vertex="1" parent="1">
          <mxGeometry x="100" y="680" width="300" height="220" as="geometry" />
        </mxCell>
      </root>
    </mxGraphModel>
  </diagram>
</mxfile>
